<?xml version="1.0" standalone="no"?><!DOCTYPE svg PUBLIC "-//W3C//DTD SVG 1.1//EN" "http://www.w3.org/Graphics/SVG/1.1/DTD/svg11.dtd"><svg t="1627801474178" class="icon" viewBox="0 0 1024 1024" version="1.1" xmlns="http://www.w3.org/2000/svg" p-id="1933" xmlns:xlink="http://www.w3.org/1999/xlink" width="200" height="200"><defs><style type="text/css"></style></defs><path d="M1004.157839 112.010435A98.261502 98.261502 0 0 0 911.781791 19.634388l-332.656126-19.447589a98.005613 98.005613 0 0 0-75.231462 28.403716L28.96361 504.032886a98.005613 98.005613 0 0 0 0 138.947905l352.103715 352.103715a98.005613 98.005613 0 0 0 138.947905 0l474.930593-474.930593A98.517391 98.517391 0 0 0 1023.605427 444.922451zM940.697285 465.905376L465.766693 940.835968a21.494704 21.494704 0 0 1-30.45083 0L83.212148 588.732253a21.238814 21.238814 0 0 1 0-30.45083L558.14274 83.350831A21.238814 21.238814 0 0 1 573.24021 76.953598h1.279447l332.656126 19.447588a21.494704 21.494704 0 0 1 20.215257 20.215257l19.1917 332.656127a21.238814 21.238814 0 0 1-5.885455 16.632806z" fill="#2c2c2c" p-id="1934"></path><path d="M618.020843 224.089961a127.944664 127.944664 0 1 0 181.937312 0 127.944664 127.944664 0 0 0-181.937312 0z m127.944664 127.944664a51.177866 51.177866 0 1 1-36.592174-88.281818 51.177866 51.177866 0 0 1 36.592174 88.281818z" fill="#2c2c2c" p-id="1935"></path></svg>