<?xml version="1.0" standalone="no"?><!DOCTYPE svg PUBLIC "-//W3C//DTD SVG 1.1//EN" "http://www.w3.org/Graphics/SVG/1.1/DTD/svg11.dtd"><svg t="1628922161083" class="icon" viewBox="0 0 1024 1024" version="1.1" xmlns="http://www.w3.org/2000/svg" p-id="601" xmlns:xlink="http://www.w3.org/1999/xlink" width="200" height="200"><defs><style type="text/css"></style></defs><path d="M350.4 456.533L785.6 887.467c29.867 29.866 29.867 81.066 0 110.933-29.867 29.867-81.067 29.86699999-115.2 0l-435.2-430.933c-29.867-29.867-29.86699999-81.067 0-110.934 34.133-29.866 85.333-29.866 115.2 0z" p-id="602"></path><path d="M239.467 456.533L674.667 25.60000001c29.866-29.867 81.066-29.867 115.2-1e-8 29.866 29.867 29.866 81.067 0 110.933l-435.2 430.934c-29.867 29.866-81.067 29.866-115.2 0-34.134-29.86699999-34.134-81.067 0-110.934z" p-id="603"></path></svg>