<?xml version="1.0" standalone="no"?><!DOCTYPE svg PUBLIC "-//W3C//DTD SVG 1.1//EN" "http://www.w3.org/Graphics/SVG/1.1/DTD/svg11.dtd"><svg t="1628835917081" class="icon" viewBox="0 0 1024 1024" version="1.1" xmlns="http://www.w3.org/2000/svg" p-id="4484" xmlns:xlink="http://www.w3.org/1999/xlink" width="200" height="200"><defs><style type="text/css"></style></defs><path d="M673.6 567.466667L238.4 136.533333C208.533333 106.666667 208.533333 55.466667 238.4 25.6c29.866667-29.866667 81.066667-29.866667 115.2 0l435.2 430.933333c29.866667 29.866667 29.866667 81.066667 0 110.933334-34.133333 29.866667-85.333333 29.866667-115.2 0z" p-id="4485"></path><path d="M784.533333 567.466667L349.333333 998.4c-29.866667 29.866667-81.066667 29.866667-115.2 0-29.866667-29.866667-29.866667-81.066667 0-110.933333l435.2-430.933334c29.866667-29.866667 81.066667-29.866667 115.2 0 34.133333 29.866667 34.133333 81.066667 0 110.933334z" p-id="4486"></path></svg>