<?xml version="1.0" standalone="no"?><!DOCTYPE svg PUBLIC "-//W3C//DTD SVG 1.1//EN" "http://www.w3.org/Graphics/SVG/1.1/DTD/svg11.dtd"><svg t="1627802179286" class="icon" viewBox="0 0 1024 1024" version="1.1" xmlns="http://www.w3.org/2000/svg" p-id="32502" xmlns:xlink="http://www.w3.org/1999/xlink" width="200" height="200"><defs><style type="text/css"></style></defs><path d="M512 986.08097c261.833697 0 474.08097-212.247273 474.08097-474.08097S773.833697 37.91903 512 37.91903 37.91903 250.166303 37.91903 512 250.166303 986.08097 512 986.08097z m0 37.91903C229.220848 1024 0 794.779152 0 512S229.220848 0 512 0 1024 229.220848 1024 512 794.779152 1024 512 1024z m265.309091-295.253333l-1.551515 35.995151-529.066667-1.551515L248.242424 265.309091l35.995152 1.551515v460.365576l493.071515 1.551515z m-424.060121-18.307879l-1.551515-1.551515 1.551515-145.159758 35.995151 1.551515-1.551515 145.159758h-34.443636z m127.689697 0l-1.551515-1.551515 1.551515-193.008485 35.995151 1.551515-1.551515 193.008485H480.969697z m119.83903-0.093091l-1.551515-1.551515 1.551515-218.484364 35.995151 1.551515-1.551515 218.484364h-34.443636z m116.76703-1.613576l-1.551515-1.551515 1.551515-289.016242 35.995152 1.551515-1.551515 289.016242h-34.443637z m-383.782788-207.592727l-23.955394-34.133333 142.118788-127.96897 131.413334 63.177697 114.284606-96.907636-57.871515-1.551516 1.551515-35.995151 126.758788 1.551515-1.551516 117.139394-35.995151-1.551515 2.544485-62.122667-149.410909 125.114182-120.304485-61.191758-129.582546 114.439758z" fill="#2c2c2c" p-id="32503"></path></svg>